<svg xmlns="http://www.w3.org/2000/svg" width="225.99" height="35" viewBox="0 0 225.99 35"><rect class="svg__rect" x="0" y="0" width="132" height="35" fill="#DECA66"/><rect class="svg__rect" x="130" y="0" width="95.99000000000001" height="35" fill="#B3F35E"/><path class="svg__text" d="M15.70 22L14.22 22L14.22 13.47L17.22 13.47Q18.69 13.47 19.50 14.13Q20.30 14.79 20.30 16.05L20.30 16.05Q20.30 16.90 19.89 17.48Q19.47 18.06 18.73 18.37L18.73 18.37L20.65 21.92L20.65 22L19.06 22L17.35 18.71L15.70 18.71L15.70 22ZM15.70 14.66L15.70 17.52L17.22 17.52Q17.97 17.52 18.39 17.15Q18.82 16.77 18.82 16.11L18.82 16.11Q18.82 15.43 18.43 15.05Q18.04 14.68 17.26 14.66L17.26 14.66L15.70 14.66ZM25.47 22L23.93 22L27.15 13.47L28.48 13.47L31.71 22L30.17 22L29.47 20.01L26.16 20.01L25.47 22ZM27.82 15.28L26.58 18.82L29.05 18.82L27.82 15.28ZM38.12 22L35.67 22L35.67 13.47L38.19 13.47Q39.32 13.47 40.19 13.97Q41.07 14.48 41.55 15.40Q42.03 16.33 42.03 17.52L42.03 17.52L42.03 17.95Q42.03 19.16 41.55 20.08Q41.06 21.00 40.17 21.50Q39.28 22 38.12 22L38.12 22ZM37.15 14.66L37.15 20.82L38.12 20.82Q39.28 20.82 39.91 20.09Q40.53 19.36 40.54 17.99L40.54 17.99L40.54 17.52Q40.54 16.13 39.94 15.40Q39.34 14.66 38.19 14.66L38.19 14.66L37.15 14.66ZM48.06 22L46.58 22L46.58 13.47L48.06 13.47L48.06 22ZM52.60 18.00L52.60 18.00L52.60 17.52Q52.60 16.28 53.04 15.32Q53.49 14.37 54.29 13.86Q55.10 13.35 56.14 13.35Q57.18 13.35 57.99 13.85Q58.80 14.35 59.23 15.29Q59.67 16.23 59.68 17.48L59.68 17.48L59.68 17.96Q59.68 19.21 59.25 20.16Q58.81 21.10 58.01 21.61Q57.20 22.12 56.15 22.12L56.15 22.12Q55.12 22.12 54.30 21.61Q53.49 21.10 53.05 20.17Q52.61 19.23 52.60 18.00ZM54.08 17.46L54.08 17.96Q54.08 19.36 54.63 20.13Q55.18 20.90 56.15 20.90L56.15 20.90Q57.14 20.90 57.67 20.15Q58.20 19.40 58.20 17.96L58.20 17.96L58.20 17.51Q58.20 16.09 57.66 15.34Q57.13 14.58 56.14 14.58L56.14 14.58Q55.18 14.58 54.64 15.33Q54.10 16.09 54.08 17.46L54.08 17.46ZM64.92 22L63.38 22L66.61 13.47L67.94 13.47L71.16 22L69.62 22L68.92 20.01L65.62 20.01L64.92 22ZM67.27 15.28L66.03 18.82L68.50 18.82L67.27 15.28ZM74.85 18.19L74.85 18.19L74.85 17.39Q74.85 16.19 75.28 15.27Q75.71 14.35 76.51 13.85Q77.31 13.35 78.35 13.35L78.35 13.35Q79.77 13.35 80.63 14.12Q81.49 14.89 81.63 16.29L81.63 16.29L80.15 16.29Q80.05 15.37 79.62 14.96Q79.19 14.55 78.35 14.55L78.35 14.55Q77.39 14.55 76.87 15.26Q76.35 15.96 76.34 17.33L76.34 17.33L76.34 18.09Q76.34 19.47 76.83 20.20Q77.33 20.92 78.28 20.92L78.28 20.92Q79.16 20.92 79.60 20.53Q80.04 20.14 80.15 19.22L80.15 19.22L81.63 19.22Q81.50 20.59 80.62 21.35Q79.74 22.12 78.28 22.12L78.28 22.12Q77.26 22.12 76.49 21.63Q75.71 21.15 75.29 20.26Q74.87 19.37 74.85 18.19ZM87.62 14.66L84.99 14.66L84.99 13.47L91.75 13.47L91.75 14.66L89.09 14.66L89.09 22L87.62 22L87.62 14.66ZM97.07 22L95.60 22L95.60 13.47L97.07 13.47L97.07 22ZM104.18 22L101.12 13.47L102.75 13.47L104.89 20.14L107.06 13.47L108.69 13.47L105.62 22L104.18 22ZM118.22 22L112.64 22L112.64 13.47L118.17 13.47L118.17 14.66L114.12 14.66L114.12 17.02L117.62 17.02L117.62 18.19L114.12 18.19L114.12 20.82L118.22 20.82L118.22 22Z" fill="#FFFFFF"/><path class="svg__text" d="M146.57 22L144.19 22L144.19 13.60L148.03 13.60Q149.17 13.60 150.01 13.98Q150.85 14.35 151.31 15.06Q151.76 15.76 151.76 16.71L151.76 16.71Q151.76 17.66 151.31 18.35Q150.85 19.05 150.01 19.42Q149.17 19.80 148.03 19.80L148.03 19.80L146.57 19.80L146.57 22ZM146.57 15.47L146.57 17.93L147.89 17.93Q148.62 17.93 148.99 17.61Q149.36 17.29 149.36 16.71L149.36 16.71Q149.36 16.12 148.99 15.80Q148.62 15.47 147.89 15.47L147.89 15.47L146.57 15.47ZM156.09 17.80L156.09 17.80Q156.09 16.55 156.69 15.55Q157.30 14.56 158.36 14.00Q159.42 13.43 160.75 13.43L160.75 13.43Q162.08 13.43 163.15 14.00Q164.21 14.56 164.82 15.55Q165.42 16.55 165.42 17.80L165.42 17.80Q165.42 19.05 164.82 20.04Q164.21 21.04 163.15 21.60Q162.09 22.17 160.75 22.17L160.75 22.17Q159.42 22.17 158.36 21.60Q157.30 21.04 156.69 20.04Q156.09 19.05 156.09 17.80ZM158.48 17.80L158.48 17.80Q158.48 18.51 158.79 19.05Q159.09 19.60 159.60 19.90Q160.12 20.20 160.75 20.20L160.75 20.20Q161.39 20.20 161.91 19.90Q162.42 19.60 162.72 19.05Q163.02 18.51 163.02 17.80L163.02 17.80Q163.02 17.09 162.72 16.54Q162.42 16 161.91 15.70Q161.39 15.40 160.75 15.40L160.75 15.40Q160.11 15.40 159.60 15.70Q159.09 16 158.79 16.54Q158.48 17.09 158.48 17.80ZM171.94 15.48L169.36 15.48L169.36 13.60L176.88 13.60L176.88 15.48L174.32 15.48L174.32 22L171.94 22L171.94 15.48ZM182.67 22L180.25 22L183.96 13.60L186.30 13.60L190.01 22L187.55 22L186.89 20.37L183.33 20.37L182.67 22ZM185.11 15.93L184.03 18.61L186.19 18.61L185.11 15.93ZM195.96 15.48L193.38 15.48L193.38 13.60L200.90 13.60L200.90 15.48L198.33 15.48L198.33 22L195.96 22L195.96 15.48ZM204.84 17.80L204.84 17.80Q204.84 16.55 205.45 15.55Q206.05 14.56 207.11 14.00Q208.18 13.43 209.51 13.43L209.51 13.43Q210.84 13.43 211.90 14.00Q212.97 14.56 213.57 15.55Q214.18 16.55 214.18 17.80L214.18 17.80Q214.18 19.05 213.57 20.04Q212.97 21.04 211.90 21.60Q210.84 22.17 209.51 22.17L209.51 22.17Q208.18 22.17 207.11 21.60Q206.05 21.04 205.45 20.04Q204.84 19.05 204.84 17.80ZM207.24 17.80L207.24 17.80Q207.24 18.51 207.54 19.05Q207.84 19.60 208.36 19.90Q208.88 20.20 209.51 20.20L209.51 20.20Q210.15 20.20 210.66 19.90Q211.18 19.60 211.48 19.05Q211.78 18.51 211.78 17.80L211.78 17.80Q211.78 17.09 211.48 16.54Q211.18 16 210.66 15.70Q210.15 15.40 209.51 15.40L209.51 15.40Q208.87 15.40 208.36 15.70Q207.84 16 207.54 16.54Q207.24 17.09 207.24 17.80Z" fill="#FFFFFF" x="143"/></svg>